<svg xmlns="http://www.w3.org/2000/svg" version="1.1" xmlns:xlink="http://www.w3.org/1999/xlink" xmlns:svgjs="http://svgjs.com/svgjs" width="1440" height="560" preserveAspectRatio="none" viewBox="0 0 1440 560"><g mask="url(&quot;#SvgjsMask1007&quot;)" fill="none"><rect width="1440" height="560" x="0" y="0" fill="rgba(17, 25, 72, 1)"></rect><path d="M47.94 -29.05L112.89 8.45L112.89 83.45L47.94 120.95L-17.01 83.45L-17.01 8.45zM112.89 83.45L177.85 120.95L177.85 195.95L112.89 233.45L47.94 195.95L47.94 120.95zM47.94 195.95L112.89 233.45L112.89 308.45L47.94 345.95L-17.01 308.45L-17.01 233.45zM177.85 -29.05L242.8 8.45L242.8 83.45L177.85 120.95L112.89 83.45L112.89 8.45zM242.8 308.45L307.75 345.95L307.75 420.95L242.8 458.45L177.85 420.95L177.85 345.95zM307.75 195.95L372.71 233.45L372.71 308.45L307.75 345.95L242.8 308.45L242.8 233.45zM437.66 -29.05L502.62 8.45L502.62 83.45L437.66 120.95L372.71 83.45L372.71 8.45zM502.62 308.45L567.57 345.95L567.57 420.95L502.62 458.45L437.66 420.95L437.66 345.95zM437.66 420.95L502.62 458.45L502.62 533.45L437.66 570.95L372.71 533.45L372.71 458.45zM632.52 83.45L697.48 120.95L697.48 195.95L632.52 233.45L567.57 195.95L567.57 120.95zM632.52 308.45L697.48 345.95L697.48 420.95L632.52 458.45L567.57 420.95L567.57 345.95zM632.52 533.45L697.48 570.95L697.48 645.95L632.52 683.45L567.57 645.95L567.57 570.95zM697.48 420.95L762.43 458.45L762.43 533.45L697.48 570.95L632.52 533.45L632.52 458.45zM827.38 420.95L892.34 458.45L892.34 533.45L827.38 570.95L762.43 533.45L762.43 458.45zM892.34 533.45L957.29 570.95L957.29 645.95L892.34 683.45L827.38 645.95L827.38 570.95zM1022.25 308.45L1087.2 345.95L1087.2 420.95L1022.25 458.45L957.29 420.95L957.29 345.95zM957.29 420.95L1022.25 458.45L1022.25 533.45L957.29 570.95L892.34 533.45L892.34 458.45zM1022.25 533.45L1087.2 570.95L1087.2 645.95L1022.25 683.45L957.29 645.95L957.29 570.95zM1152.15 308.45L1217.11 345.95L1217.11 420.95L1152.15 458.45L1087.2 420.95L1087.2 345.95zM1087.2 420.95L1152.15 458.45L1152.15 533.45L1087.2 570.95L1022.25 533.45L1022.25 458.45zM1282.06 83.45L1347.01 120.95L1347.01 195.95L1282.06 233.45L1217.11 195.95L1217.11 120.95zM1217.11 195.95L1282.06 233.45L1282.06 308.45L1217.11 345.95L1152.15 308.45L1152.15 233.45zM1347.02 420.95L1411.97 458.45L1411.97 533.45L1347.02 570.95L1282.06 533.45L1282.06 458.45zM1411.97 533.45L1476.92 570.95L1476.92 645.95L1411.97 683.45L1347.02 645.95L1347.02 570.95zM1541.88 83.45L1606.83 120.95L1606.83 195.95L1541.88 233.45L1476.92 195.95L1476.92 120.95z" stroke="#03305d" stroke-width="2"></path><path d="M40.44 -29.05 a7.5 7.5 0 1 0 15 0 a7.5 7.5 0 1 0 -15 0zM105.39 8.45 a7.5 7.5 0 1 0 15 0 a7.5 7.5 0 1 0 -15 0zM105.39 83.45 a7.5 7.5 0 1 0 15 0 a7.5 7.5 0 1 0 -15 0zM40.44 120.95 a7.5 7.5 0 1 0 15 0 a7.5 7.5 0 1 0 -15 0zM-24.51 83.45 a7.5 7.5 0 1 0 15 0 a7.5 7.5 0 1 0 -15 0zM-24.51 8.45 a7.5 7.5 0 1 0 15 0 a7.5 7.5 0 1 0 -15 0zM170.35 120.95 a7.5 7.5 0 1 0 15 0 a7.5 7.5 0 1 0 -15 0zM170.35 195.95 a7.5 7.5 0 1 0 15 0 a7.5 7.5 0 1 0 -15 0zM105.39 233.45 a7.5 7.5 0 1 0 15 0 a7.5 7.5 0 1 0 -15 0zM40.44 195.95 a7.5 7.5 0 1 0 15 0 a7.5 7.5 0 1 0 -15 0zM105.39 308.45 a7.5 7.5 0 1 0 15 0 a7.5 7.5 0 1 0 -15 0zM40.44 345.95 a7.5 7.5 0 1 0 15 0 a7.5 7.5 0 1 0 -15 0zM-24.51 308.45 a7.5 7.5 0 1 0 15 0 a7.5 7.5 0 1 0 -15 0zM-24.51 233.45 a7.5 7.5 0 1 0 15 0 a7.5 7.5 0 1 0 -15 0zM170.35 -29.05 a7.5 7.5 0 1 0 15 0 a7.5 7.5 0 1 0 -15 0zM235.3 8.45 a7.5 7.5 0 1 0 15 0 a7.5 7.5 0 1 0 -15 0zM235.3 83.45 a7.5 7.5 0 1 0 15 0 a7.5 7.5 0 1 0 -15 0zM235.3 308.45 a7.5 7.5 0 1 0 15 0 a7.5 7.5 0 1 0 -15 0zM300.25 345.95 a7.5 7.5 0 1 0 15 0 a7.5 7.5 0 1 0 -15 0zM300.25 420.95 a7.5 7.5 0 1 0 15 0 a7.5 7.5 0 1 0 -15 0zM235.3 458.45 a7.5 7.5 0 1 0 15 0 a7.5 7.5 0 1 0 -15 0zM170.35 420.95 a7.5 7.5 0 1 0 15 0 a7.5 7.5 0 1 0 -15 0zM170.35 345.95 a7.5 7.5 0 1 0 15 0 a7.5 7.5 0 1 0 -15 0zM300.25 195.95 a7.5 7.5 0 1 0 15 0 a7.5 7.5 0 1 0 -15 0zM365.21 233.45 a7.5 7.5 0 1 0 15 0 a7.5 7.5 0 1 0 -15 0zM365.21 308.45 a7.5 7.5 0 1 0 15 0 a7.5 7.5 0 1 0 -15 0zM235.3 233.45 a7.5 7.5 0 1 0 15 0 a7.5 7.5 0 1 0 -15 0zM430.16 -29.05 a7.5 7.5 0 1 0 15 0 a7.5 7.5 0 1 0 -15 0zM495.12 8.45 a7.5 7.5 0 1 0 15 0 a7.5 7.5 0 1 0 -15 0zM495.12 83.45 a7.5 7.5 0 1 0 15 0 a7.5 7.5 0 1 0 -15 0zM430.16 120.95 a7.5 7.5 0 1 0 15 0 a7.5 7.5 0 1 0 -15 0zM365.21 83.45 a7.5 7.5 0 1 0 15 0 a7.5 7.5 0 1 0 -15 0zM365.21 8.45 a7.5 7.5 0 1 0 15 0 a7.5 7.5 0 1 0 -15 0zM495.12 308.45 a7.5 7.5 0 1 0 15 0 a7.5 7.5 0 1 0 -15 0zM560.07 345.95 a7.5 7.5 0 1 0 15 0 a7.5 7.5 0 1 0 -15 0zM560.07 420.95 a7.5 7.5 0 1 0 15 0 a7.5 7.5 0 1 0 -15 0zM495.12 458.45 a7.5 7.5 0 1 0 15 0 a7.5 7.5 0 1 0 -15 0zM430.16 420.95 a7.5 7.5 0 1 0 15 0 a7.5 7.5 0 1 0 -15 0zM430.16 345.95 a7.5 7.5 0 1 0 15 0 a7.5 7.5 0 1 0 -15 0zM495.12 533.45 a7.5 7.5 0 1 0 15 0 a7.5 7.5 0 1 0 -15 0zM430.16 570.95 a7.5 7.5 0 1 0 15 0 a7.5 7.5 0 1 0 -15 0zM365.21 533.45 a7.5 7.5 0 1 0 15 0 a7.5 7.5 0 1 0 -15 0zM365.21 458.45 a7.5 7.5 0 1 0 15 0 a7.5 7.5 0 1 0 -15 0zM625.02 83.45 a7.5 7.5 0 1 0 15 0 a7.5 7.5 0 1 0 -15 0zM689.98 120.95 a7.5 7.5 0 1 0 15 0 a7.5 7.5 0 1 0 -15 0zM689.98 195.95 a7.5 7.5 0 1 0 15 0 a7.5 7.5 0 1 0 -15 0zM625.02 233.45 a7.5 7.5 0 1 0 15 0 a7.5 7.5 0 1 0 -15 0zM560.07 195.95 a7.5 7.5 0 1 0 15 0 a7.5 7.5 0 1 0 -15 0zM560.07 120.95 a7.5 7.5 0 1 0 15 0 a7.5 7.5 0 1 0 -15 0zM625.02 308.45 a7.5 7.5 0 1 0 15 0 a7.5 7.5 0 1 0 -15 0zM689.98 345.95 a7.5 7.5 0 1 0 15 0 a7.5 7.5 0 1 0 -15 0zM689.98 420.95 a7.5 7.5 0 1 0 15 0 a7.5 7.5 0 1 0 -15 0zM625.02 458.45 a7.5 7.5 0 1 0 15 0 a7.5 7.5 0 1 0 -15 0zM625.02 533.45 a7.5 7.5 0 1 0 15 0 a7.5 7.5 0 1 0 -15 0zM689.98 570.95 a7.5 7.5 0 1 0 15 0 a7.5 7.5 0 1 0 -15 0zM689.98 645.95 a7.5 7.5 0 1 0 15 0 a7.5 7.5 0 1 0 -15 0zM625.02 683.45 a7.5 7.5 0 1 0 15 0 a7.5 7.5 0 1 0 -15 0zM560.07 645.95 a7.5 7.5 0 1 0 15 0 a7.5 7.5 0 1 0 -15 0zM560.07 570.95 a7.5 7.5 0 1 0 15 0 a7.5 7.5 0 1 0 -15 0zM754.93 458.45 a7.5 7.5 0 1 0 15 0 a7.5 7.5 0 1 0 -15 0zM754.93 533.45 a7.5 7.5 0 1 0 15 0 a7.5 7.5 0 1 0 -15 0zM819.88 420.95 a7.5 7.5 0 1 0 15 0 a7.5 7.5 0 1 0 -15 0zM884.84 458.45 a7.5 7.5 0 1 0 15 0 a7.5 7.5 0 1 0 -15 0zM884.84 533.45 a7.5 7.5 0 1 0 15 0 a7.5 7.5 0 1 0 -15 0zM819.88 570.95 a7.5 7.5 0 1 0 15 0 a7.5 7.5 0 1 0 -15 0zM949.79 570.95 a7.5 7.5 0 1 0 15 0 a7.5 7.5 0 1 0 -15 0zM949.79 645.95 a7.5 7.5 0 1 0 15 0 a7.5 7.5 0 1 0 -15 0zM884.84 683.45 a7.5 7.5 0 1 0 15 0 a7.5 7.5 0 1 0 -15 0zM819.88 645.95 a7.5 7.5 0 1 0 15 0 a7.5 7.5 0 1 0 -15 0zM1014.75 308.45 a7.5 7.5 0 1 0 15 0 a7.5 7.5 0 1 0 -15 0zM1079.7 345.95 a7.5 7.5 0 1 0 15 0 a7.5 7.5 0 1 0 -15 0zM1079.7 420.95 a7.5 7.5 0 1 0 15 0 a7.5 7.5 0 1 0 -15 0zM1014.75 458.45 a7.5 7.5 0 1 0 15 0 a7.5 7.5 0 1 0 -15 0zM949.79 420.95 a7.5 7.5 0 1 0 15 0 a7.5 7.5 0 1 0 -15 0zM949.79 345.95 a7.5 7.5 0 1 0 15 0 a7.5 7.5 0 1 0 -15 0zM1014.75 533.45 a7.5 7.5 0 1 0 15 0 a7.5 7.5 0 1 0 -15 0zM1079.7 570.95 a7.5 7.5 0 1 0 15 0 a7.5 7.5 0 1 0 -15 0zM1079.7 645.95 a7.5 7.5 0 1 0 15 0 a7.5 7.5 0 1 0 -15 0zM1014.75 683.45 a7.5 7.5 0 1 0 15 0 a7.5 7.5 0 1 0 -15 0zM1144.65 308.45 a7.5 7.5 0 1 0 15 0 a7.5 7.5 0 1 0 -15 0zM1209.61 345.95 a7.5 7.5 0 1 0 15 0 a7.5 7.5 0 1 0 -15 0zM1209.61 420.95 a7.5 7.5 0 1 0 15 0 a7.5 7.5 0 1 0 -15 0zM1144.65 458.45 a7.5 7.5 0 1 0 15 0 a7.5 7.5 0 1 0 -15 0zM1144.65 533.45 a7.5 7.5 0 1 0 15 0 a7.5 7.5 0 1 0 -15 0zM1274.56 83.45 a7.5 7.5 0 1 0 15 0 a7.5 7.5 0 1 0 -15 0zM1339.51 120.95 a7.5 7.5 0 1 0 15 0 a7.5 7.5 0 1 0 -15 0zM1339.51 195.95 a7.5 7.5 0 1 0 15 0 a7.5 7.5 0 1 0 -15 0zM1274.56 233.45 a7.5 7.5 0 1 0 15 0 a7.5 7.5 0 1 0 -15 0zM1209.61 195.95 a7.5 7.5 0 1 0 15 0 a7.5 7.5 0 1 0 -15 0zM1209.61 120.95 a7.5 7.5 0 1 0 15 0 a7.5 7.5 0 1 0 -15 0zM1274.56 308.45 a7.5 7.5 0 1 0 15 0 a7.5 7.5 0 1 0 -15 0zM1144.65 233.45 a7.5 7.5 0 1 0 15 0 a7.5 7.5 0 1 0 -15 0zM1339.52 420.95 a7.5 7.5 0 1 0 15 0 a7.5 7.5 0 1 0 -15 0zM1404.47 458.45 a7.5 7.5 0 1 0 15 0 a7.5 7.5 0 1 0 -15 0zM1404.47 533.45 a7.5 7.5 0 1 0 15 0 a7.5 7.5 0 1 0 -15 0zM1339.52 570.95 a7.5 7.5 0 1 0 15 0 a7.5 7.5 0 1 0 -15 0zM1274.56 533.45 a7.5 7.5 0 1 0 15 0 a7.5 7.5 0 1 0 -15 0zM1274.56 458.45 a7.5 7.5 0 1 0 15 0 a7.5 7.5 0 1 0 -15 0zM1469.42 570.95 a7.5 7.5 0 1 0 15 0 a7.5 7.5 0 1 0 -15 0zM1469.42 645.95 a7.5 7.5 0 1 0 15 0 a7.5 7.5 0 1 0 -15 0zM1404.47 683.45 a7.5 7.5 0 1 0 15 0 a7.5 7.5 0 1 0 -15 0zM1339.52 645.95 a7.5 7.5 0 1 0 15 0 a7.5 7.5 0 1 0 -15 0zM1534.38 83.45 a7.5 7.5 0 1 0 15 0 a7.5 7.5 0 1 0 -15 0zM1599.33 120.95 a7.5 7.5 0 1 0 15 0 a7.5 7.5 0 1 0 -15 0zM1599.33 195.95 a7.5 7.5 0 1 0 15 0 a7.5 7.5 0 1 0 -15 0zM1534.38 233.45 a7.5 7.5 0 1 0 15 0 a7.5 7.5 0 1 0 -15 0zM1469.42 195.95 a7.5 7.5 0 1 0 15 0 a7.5 7.5 0 1 0 -15 0zM1469.42 120.95 a7.5 7.5 0 1 0 15 0 a7.5 7.5 0 1 0 -15 0z" fill="#03305d"></path><path d="M6.5 -29.5L49.8 -4.5L49.8 45.5L6.5 70.5L-36.8 45.5L-36.8 -4.5zM49.8 195.5L93.11 220.5L93.11 270.5L49.8 295.5L6.5 270.5L6.5 220.5zM93.11 -29.5L136.41 -4.5L136.41 45.5L93.11 70.5L49.8 45.5L49.8 -4.5zM93.11 120.5L136.41 145.5L136.41 195.5L93.11 220.5L49.8 195.5L49.8 145.5zM93.11 270.5L136.41 295.5L136.41 345.5L93.11 370.5L49.8 345.5L49.8 295.5zM93.11 420.5L136.41 445.5L136.41 495.5L93.11 520.5L49.8 495.5L49.8 445.5zM179.71 120.5L223.01 145.5L223.01 195.5L179.71 220.5L136.41 195.5L136.41 145.5zM223.01 195.5L266.31 220.5L266.31 270.5L223.01 295.5L179.71 270.5L179.71 220.5zM179.71 420.5L223.01 445.5L223.01 495.5L179.71 520.5L136.41 495.5L136.41 445.5zM266.31 -29.5L309.62 -4.5L309.62 45.5L266.31 70.5L223.01 45.5L223.01 -4.5zM266.31 120.5L309.62 145.5L309.62 195.5L266.31 220.5L223.01 195.5L223.01 145.5zM309.62 195.5L352.92 220.5L352.92 270.5L309.62 295.5L266.31 270.5L266.31 220.5zM266.31 270.5L309.62 295.5L309.62 345.5L266.31 370.5L223.01 345.5L223.01 295.5zM309.62 345.5L352.92 370.5L352.92 420.5L309.62 445.5L266.31 420.5L266.31 370.5zM352.92 120.5L396.22 145.5L396.22 195.5L352.92 220.5L309.62 195.5L309.62 145.5zM482.83 195.5L526.13 220.5L526.13 270.5L482.83 295.5L439.53 270.5L439.53 220.5zM439.53 270.5L482.83 295.5L482.83 345.5L439.53 370.5L396.22 345.5L396.22 295.5zM569.43 45.5L612.74 70.5L612.74 120.5L569.43 145.5L526.13 120.5L526.13 70.5zM612.74 120.5L656.04 145.5L656.04 195.5L612.74 220.5L569.43 195.5L569.43 145.5zM612.74 270.5L656.04 295.5L656.04 345.5L612.74 370.5L569.43 345.5L569.43 295.5zM612.74 420.5L656.04 445.5L656.04 495.5L612.74 520.5L569.43 495.5L569.43 445.5zM699.34 -29.5L742.64 -4.5L742.64 45.5L699.34 70.5L656.04 45.5L656.04 -4.5zM742.64 45.5L785.95 70.5L785.95 120.5L742.64 145.5L699.34 120.5L699.34 70.5zM915.85 195.5L959.16 220.5L959.16 270.5L915.85 295.5L872.55 270.5L872.55 220.5zM872.55 270.5L915.85 295.5L915.85 345.5L872.55 370.5L829.25 345.5L829.25 295.5zM915.85 345.5L959.16 370.5L959.16 420.5L915.85 445.5L872.55 420.5L872.55 370.5zM915.85 495.5L959.16 520.5L959.16 570.5L915.85 595.5L872.55 570.5L872.55 520.5zM959.16 -29.5L1002.46 -4.5L1002.46 45.5L959.16 70.5L915.85 45.5L915.85 -4.5zM1002.46 45.5L1045.76 70.5L1045.76 120.5L1002.46 145.5L959.16 120.5L959.16 70.5zM959.16 270.5L1002.46 295.5L1002.46 345.5L959.16 370.5L915.85 345.5L915.85 295.5zM1089.06 45.5L1132.37 70.5L1132.37 120.5L1089.06 145.5L1045.76 120.5L1045.76 70.5zM1045.76 120.5L1089.06 145.5L1089.06 195.5L1045.76 220.5L1002.46 195.5L1002.46 145.5zM1045.76 420.5L1089.06 445.5L1089.06 495.5L1045.76 520.5L1002.46 495.5L1002.46 445.5zM1132.37 420.5L1175.67 445.5L1175.67 495.5L1132.37 520.5L1089.06 495.5L1089.06 445.5zM1262.27 45.5L1305.58 70.5L1305.58 120.5L1262.27 145.5L1218.97 120.5L1218.97 70.5zM1218.97 420.5L1262.27 445.5L1262.27 495.5L1218.97 520.5L1175.67 495.5L1175.67 445.5zM1262.27 495.5L1305.58 520.5L1305.58 570.5L1262.27 595.5L1218.97 570.5L1218.97 520.5zM1305.58 120.5L1348.88 145.5L1348.88 195.5L1305.58 220.5L1262.27 195.5L1262.27 145.5zM1305.58 270.5L1348.88 295.5L1348.88 345.5L1305.58 370.5L1262.27 345.5L1262.27 295.5zM1348.88 345.5L1392.18 370.5L1392.18 420.5L1348.88 445.5L1305.58 420.5L1305.58 370.5zM1305.58 420.5L1348.88 445.5L1348.88 495.5L1305.58 520.5L1262.27 495.5L1262.27 445.5zM1348.88 495.5L1392.18 520.5L1392.18 570.5L1348.88 595.5L1305.58 570.5L1305.58 520.5zM1392.18 120.5L1435.48 145.5L1435.48 195.5L1392.18 220.5L1348.88 195.5L1348.88 145.5z" stroke="rgba(6, 80, 156, 0.93)" stroke-width="2"></path></g><defs><mask id="SvgjsMask1007"><rect width="1440" height="560" fill="#ffffff"></rect></mask></defs></svg>