<?xml version="1.0" encoding="utf-8"?>
<!-- Generator: Adobe Illustrator 15.1.0, SVG Export Plug-In . SVG Version: 6.00 Build 0)  -->
<!DOCTYPE svg PUBLIC "-//W3C//DTD SVG 1.1//EN" "http://www.w3.org/Graphics/SVG/1.1/DTD/svg11.dtd">
<svg version="1.1" id="Calque_1" xmlns="http://www.w3.org/2000/svg" xmlns:xlink="http://www.w3.org/1999/xlink" x="0px" y="0px"
	 width="406px" height="128px" viewBox="0 0 406 128" enable-background="new 0 0 406 128" xml:space="preserve">
<path fill="#78BCDD" d="M153.524,65.185c0.477,0.654,1.072,1.25,1.757,1.782c0.7,0.543,1.504,0.968,2.434,1.31
	c0.931,0.328,1.958,0.514,3.097,0.514c1.169,0,2.226-0.216,3.179-0.61c0.938-0.42,1.741-0.968,2.396-1.671
	c0.655-0.685,1.161-1.5,1.519-2.437c0.357-0.953,0.535-1.951,0.535-3.026c0-1.642-0.416-2.937-1.25-3.904
	c-0.834-0.952-1.876-1.749-3.126-2.389c-1.251-0.641-2.59-1.221-4.034-1.765c-1.429-0.528-2.784-1.205-4.02-2.002
	c-1.25-0.796-2.292-1.823-3.126-3.074c-0.834-1.235-1.25-2.895-1.25-5.017c0-1.48,0.268-2.843,0.804-4.071
	c0.528-1.221,1.295-2.285,2.314-3.171c1.02-0.893,2.233-1.577,3.654-2.084c1.43-0.491,3.022-0.744,4.809-0.744
	c1.697,0,3.171,0.201,4.421,0.61c1.251,0.417,2.404,1.042,3.469,1.905c-0.313,0.596-0.58,1.235-0.804,1.921
	c-0.208,0.67-0.417,1.511-0.641,2.561h-0.64c-0.179-0.514-0.417-1.05-0.715-1.638c-0.298-0.581-0.714-1.132-1.235-1.63
	c-0.506-0.484-1.116-0.901-1.831-1.243c-0.715-0.35-1.563-0.506-2.561-0.506c-0.997,0-1.913,0.141-2.754,0.469
	c-0.833,0.313-1.563,0.781-2.188,1.361c-0.61,0.596-1.102,1.296-1.443,2.106c-0.328,0.826-0.499,1.72-0.499,2.673
	c0,1.667,0.425,2.984,1.258,3.938c0.834,0.967,1.876,1.778,3.119,2.434c1.242,0.67,2.582,1.25,4.026,1.764s2.784,1.154,4.034,1.891
	c1.235,0.752,2.277,1.72,3.111,2.873c0.834,1.184,1.258,2.747,1.258,4.704c0,1.638-0.29,3.186-0.886,4.648
	c-0.58,1.455-1.444,2.72-2.561,3.811c-1.116,1.083-2.486,1.92-4.108,2.501c-1.615,0.596-3.454,0.894-5.516,0.894
	c-2.21,0-3.997-0.298-5.366-0.894c-1.37-0.581-2.516-1.251-3.438-1.998c0.319-0.815,0.543-1.56,0.67-2.219
	c0.119-0.655,0.238-1.5,0.342-2.53h0.641C152.661,63.871,153.048,64.53,153.524,65.185"/>
<path fill="#78BCDD" d="M186.393,66.495c-0.625-1.533-1.295-3.141-2.01-4.842c-0.699-1.675-1.429-3.405-2.173-5.158
	c-0.744-1.771-1.459-3.431-2.114-4.972c-0.655-1.548-1.235-2.91-1.741-4.079c-0.491-1.176-0.863-2.047-1.117-2.612
	c0.462,0.067,0.894,0.127,1.28,0.187c0.402,0.052,0.789,0.066,1.177,0.066c0.395,0,0.788-0.015,1.176-0.066
	c0.387-0.06,0.818-0.119,1.28-0.187c1.102,3.409,2.329,6.796,3.677,10.123c1.354,3.353,2.783,6.807,4.272,10.368
	c1.503-3.126,2.925-6.479,4.295-10.041c1.365-3.551,2.594-7.041,3.65-10.45c0.719,0.187,1.299,0.253,1.768,0.253
	c0.458,0,1.046-0.066,1.764-0.253c-0.253,0.499-0.659,1.348-1.206,2.53c-0.547,1.191-1.206,2.613-1.973,4.266
	c-0.763,1.667-1.604,3.498-2.508,5.5c-0.908,2.014-1.831,4.071-2.776,6.182c-0.945,2.125-1.876,4.231-2.792,6.293
	c-0.938,2.092-1.786,4.064-2.56,5.933c-0.789,1.875-1.475,3.55-2.063,5.076c-0.588,1.499-1.02,2.705-1.317,3.595
	c-0.699-0.175-1.31-0.265-1.801-0.265c-0.506,0-1.102,0.09-1.816,0.265c2.806-4.671,5.195-9.326,7.146-13.979
	C187.525,69.259,187.018,68.009,186.393,66.495"/>
<path fill="#78BCDD" d="M223.713,49.126c-1.038-1.377-2.452-2.062-4.275-2.062c-2.486,0-4.313,0.767-5.456,2.292
	c-1.169,1.533-1.745,3.685-1.745,6.468v4.525c0,1.608,0.029,3.283,0.089,5.043c0.049,1.753,0.16,3.346,0.343,4.782
	c-0.822-0.078-1.623-0.108-2.4-0.108c-0.785,0-1.593,0.03-2.4,0.108c0.167-1.437,0.29-3.029,0.35-4.782
	c0.048-1.76,0.078-3.435,0.078-5.043v-5.537c0-1.607-0.03-3.298-0.078-5.047c-0.06-1.756-0.183-3.408-0.35-4.927
	c0.989,0.179,1.79,0.253,2.4,0.253c0.282,0,0.595-0.015,0.93-0.074s0.741-0.127,1.206-0.179c-0.107,1.414-0.167,2.843-0.167,4.257
	h0.111c1.001-1.519,2.195-2.709,3.584-3.55c1.396-0.826,3.048-1.251,4.983-1.251c1.001,0,2.006,0.142,3.018,0.425
	c1.017,0.298,1.939,0.767,2.762,1.466c0.815,0.707,1.485,1.646,2.002,2.828c0.521,1.199,0.778,2.717,0.778,4.563
	c0,1.533-0.037,3.104-0.104,4.715c-0.078,1.623-0.108,3.338-0.108,5.15v3.469c0,0.58,0.008,1.127,0.016,1.686
	c0.022,0.547,0.044,1.064,0.093,1.578c-0.733-0.078-1.481-0.108-2.273-0.108c-0.752,0-1.493,0.03-2.211,0.108
	c0.07-1.846,0.152-3.751,0.245-5.716c0.082-1.954,0.131-3.967,0.131-6.029v-3.245C225.262,52.513,224.74,50.496,223.713,49.126"/>
<path fill="#78BCDD" d="M239.526,48.032c2.088-2.5,5.113-3.736,9.106-3.736c1.876,0,3.506,0.283,4.872,0.879
	c1.373,0.588,2.522,1.377,3.453,2.359c0.923,0.968,1.607,2.106,2.051,3.431c0.439,1.317,0.662,2.717,0.662,4.221
	c0,0.357-0.007,0.699-0.022,1.042c-0.022,0.327-0.048,0.678-0.085,1.034c-1.928-0.037-3.826-0.066-5.709-0.111
	c-1.891-0.029-3.789-0.045-5.709-0.045c-1.173,0-2.337,0.016-3.491,0.045c-1.157,0.045-2.314,0.074-3.498,0.111
	c-0.037,0.183-0.052,0.436-0.052,0.793v0.703c0,1.377,0.204,2.673,0.617,3.894c0.402,1.213,0.998,2.248,1.783,3.118
	c0.785,0.874,1.745,1.563,2.88,2.08c1.136,0.518,2.457,0.778,3.941,0.778c0.719,0,1.448-0.108,2.196-0.298
	c0.747-0.197,1.477-0.466,2.188-0.793c0.707-0.343,1.377-0.748,2.003-1.206c0.617-0.465,1.168-0.968,1.622-1.484l0.268,0.145
	l-0.319,2.62c-1.061,0.849-2.386,1.578-3.979,2.188c-1.578,0.596-3.223,0.908-4.932,0.908c-1.912,0-3.673-0.298-5.251-0.878
	c-1.585-0.592-2.958-1.448-4.108-2.561c-1.157-1.136-2.051-2.453-2.668-3.979c-0.626-1.533-0.938-3.186-0.938-4.968
	C236.407,53.95,237.453,50.526,239.526,48.032 M245.402,46.909c-0.908,0.609-1.652,1.369-2.247,2.277
	c-0.581,0.908-1.031,1.891-1.329,2.97c-0.302,1.094-0.487,2.121-0.562,3.074c1.104,0.044,2.247,0.074,3.438,0.111
	c1.188,0.029,2.359,0.045,3.498,0.045c1.172,0,2.371-0.016,3.573-0.045c1.205-0.037,2.378-0.067,3.527-0.111
	c0-0.953-0.089-1.966-0.241-3.045c-0.16-1.064-0.488-2.047-0.961-2.984c-0.479-0.923-1.149-1.683-1.998-2.292
	c-0.859-0.596-1.98-0.908-3.368-0.908C247.424,46,246.311,46.313,245.402,46.909"/>
<path fill="#78BCDD" d="M277.52,48.621c-0.51-0.179-1.046-0.269-1.57-0.269c-0.853,0-1.623,0.187-2.292,0.581
	c-0.689,0.401-1.251,0.923-1.709,1.577c-0.465,0.655-0.822,1.437-1.075,2.353c-0.242,0.908-0.372,1.876-0.372,2.896v5.869
	c0,2.393,0.015,4.212,0.029,5.478c0.016,1.266,0.075,2.281,0.183,3.066c-0.699-0.078-1.418-0.107-2.133-0.107
	c-0.777,0-1.525,0.029-2.232,0.107c0.104-1.206,0.167-2.858,0.183-4.938c0.015-2.077,0.029-4.637,0.029-7.656V55.87
	c0-1.385-0.015-2.978-0.029-4.801c-0.016-1.809-0.078-3.893-0.183-6.229c0.387,0.06,0.759,0.119,1.12,0.171
	c0.357,0.067,0.722,0.082,1.112,0.082c0.328,0,0.655-0.015,1.013-0.082c0.357-0.052,0.733-0.111,1.12-0.171
	c-0.138,1.28-0.22,2.292-0.234,3.029c-0.022,0.752-0.029,1.466-0.029,2.136l0.111,0.053c2.095-3.834,4.443-5.754,7.045-5.754
	c0.313,0,0.592,0.015,0.822,0.037c0.228,0.045,0.524,0.142,0.875,0.275c-0.175,0.424-0.279,1.064-0.32,1.942
	c-0.03,0.886-0.045,1.668-0.045,2.375l-0.38,0.268C278.38,48.993,278.029,48.792,277.52,48.621"/>
<path fill="#78BCDD" d="M284.591,49.119c0.524-1.079,1.272-1.979,2.211-2.687c0.945-0.715,2.035-1.251,3.26-1.593
	c1.221-0.357,2.53-0.544,3.911-0.544c0.678,0,1.325,0.016,1.95,0.045c0.625,0.052,1.418,0.097,2.378,0.171
	c0.815,0.075,1.548,0.112,2.188,0.156c0.64,0.037,1.15,0.053,1.548,0.053c1.987,0,3.428-0.097,4.321-0.269
	c-0.037,0.172-0.06,0.372-0.082,0.566c-0.019,0.193-0.026,0.387-0.026,0.558c0,0.187,0.008,0.357,0.026,0.559
	c0.022,0.193,0.045,0.38,0.082,0.565c-1.027-0.074-2.036-0.156-3.019-0.238c-0.975-0.089-1.942-0.148-2.902-0.201l-0.108,0.112
	c1.105,0.61,1.991,1.548,2.669,2.813c0.669,1.25,1.012,2.561,1.012,3.915c0,2.657-0.89,4.764-2.698,6.264
	c-1.797,1.515-4.197,2.263-7.224,2.263c-0.495,0-0.989-0.016-1.462-0.045c-0.488-0.03-0.972-0.06-1.481-0.06
	c-0.641,0-1.235,0.234-1.783,0.699c-0.547,0.466-0.814,1.046-0.814,1.753c0,0.931,0.212,1.607,0.655,2.028
	c0.442,0.436,1.272,0.67,2.485,0.699c0.998,0.03,1.973,0.063,2.926,0.078c0.967,0.03,1.942,0.038,2.936,0.082
	c1.638,0.03,3.041,0.231,4.198,0.588c1.143,0.351,2.096,0.83,2.828,1.44c0.723,0.61,1.258,1.295,1.593,2.08
	c0.343,0.778,0.503,1.638,0.503,2.561c0,1.236-0.234,2.501-0.707,3.781c-0.487,1.28-1.229,2.449-2.252,3.477
	c-1.012,1.02-2.314,1.89-3.915,2.553c-1.601,0.685-3.528,1.012-5.765,1.012c-3.45,0-6.17-0.685-8.161-2.047
	c-1.987-1.373-2.988-3.248-2.988-5.634c0-0.923,0.167-1.768,0.51-2.554c0.339-0.777,0.771-1.477,1.313-2.087
	c0.524-0.596,1.128-1.083,1.805-1.426c0.678-0.357,1.374-0.625,2.073-0.808v-0.107c-1.098-0.328-1.928-0.86-2.501-1.601
	c-0.569-0.748-0.853-1.638-0.853-2.669c0-0.61,0.115-1.157,0.351-1.652c0.223-0.502,0.517-0.938,0.878-1.343
	c0.357-0.38,0.763-0.707,1.217-0.953c0.465-0.249,0.908-0.409,1.344-0.487v-0.107c-1.638-0.7-2.922-1.705-3.841-3
	c-0.923-1.295-1.381-2.933-1.381-4.883C283.798,51.508,284.059,50.213,284.591,49.119 M300.861,71.344
	c-1.239-0.86-3.313-1.28-6.188-1.28c-2.657,0-4.73,0.435-6.189,1.313c-1.463,0.859-2.185,2.438-2.185,4.715
	c0,1.206,0.205,2.233,0.61,3.104c0.409,0.845,0.968,1.548,1.652,2.065c0.692,0.531,1.526,0.923,2.486,1.172
	c0.968,0.261,1.987,0.376,3.093,0.376c1.075,0,2.109-0.131,3.148-0.421c1.034-0.282,1.942-0.707,2.742-1.28
	c0.808-0.58,1.448-1.287,1.954-2.173c0.495-0.86,0.744-1.905,0.744-3.107C302.729,73.685,302.104,72.2,300.861,71.344
	 M298.249,47.608c-1.076-1.176-2.472-1.757-4.217-1.757c-1.92,0-3.412,0.641-4.48,1.928c-1.068,1.311-1.608,3.045-1.608,5.218
	c0,2.233,0.495,3.997,1.478,5.292c0.979,1.311,2.501,1.95,4.552,1.95c1.038,0,1.921-0.189,2.653-0.606
	c0.723-0.405,1.325-0.953,1.806-1.656c0.487-0.692,0.837-1.481,1.067-2.39c0.234-0.907,0.35-1.86,0.35-2.857
	C299.849,50.481,299.324,48.777,298.249,47.608"/>
<path fill="#78BCDD" d="M314.359,33.629c0.532-0.543,1.173-0.811,1.921-0.811c0.74,0,1.38,0.268,1.912,0.811
	c0.54,0.536,0.808,1.177,0.808,1.921c0,0.736-0.268,1.377-0.808,1.92c-0.532,0.536-1.172,0.797-1.912,0.797
	c-0.748,0-1.389-0.261-1.921-0.797c-0.543-0.543-0.8-1.184-0.8-1.92C313.56,34.806,313.816,34.166,314.359,33.629 M314.222,49.766
	c-0.052-1.756-0.16-3.408-0.342-4.927c0.997,0.179,1.79,0.253,2.4,0.253s1.402-0.074,2.4-0.253
	c-0.176,1.519-0.291,3.171-0.351,4.927c-0.052,1.749-0.078,3.439-0.078,5.047v5.537c0,1.608,0.026,3.283,0.078,5.043
	c0.06,1.753,0.175,3.346,0.351,4.782c-0.815-0.078-1.615-0.108-2.4-0.108c-0.786,0-1.586,0.03-2.4,0.108
	c0.182-1.437,0.29-3.029,0.342-4.782c0.06-1.76,0.082-3.435,0.082-5.043v-5.537C314.304,53.206,314.281,51.515,314.222,49.766"/>
<path fill="#78BCDD" d="M329.744,48.032c2.088-2.5,5.113-3.736,9.1-3.736c1.891,0,3.517,0.283,4.879,0.879
	c1.373,0.588,2.523,1.377,3.446,2.359c0.931,0.968,1.607,2.106,2.051,3.431c0.45,1.317,0.67,2.717,0.67,4.221
	c0,0.357-0.008,0.699-0.03,1.042c-0.015,0.327-0.045,0.678-0.078,1.034c-1.92-0.037-3.825-0.066-5.709-0.111
	c-1.879-0.029-3.784-0.045-5.709-0.045c-1.172,0-2.329,0.016-3.498,0.045c-1.149,0.045-2.314,0.074-3.491,0.111
	c-0.037,0.183-0.044,0.436-0.044,0.793v0.703c0,1.377,0.197,2.673,0.61,3.894c0.405,1.213,0.997,2.248,1.782,3.118
	c0.785,0.875,1.738,1.563,2.888,2.08c1.128,0.518,2.449,0.778,3.941,0.778c0.719,0,1.448-0.108,2.196-0.298
	c0.74-0.197,1.47-0.465,2.188-0.793c0.7-0.342,1.362-0.748,1.987-1.205c0.626-0.466,1.177-0.969,1.634-1.485l0.265,0.145l-0.32,2.62
	c-1.064,0.85-2.393,1.578-3.971,2.188c-1.585,0.596-3.23,0.908-4.946,0.908c-1.912,0-3.665-0.298-5.251-0.878
	c-1.578-0.592-2.951-1.447-4.108-2.561c-1.143-1.135-2.043-2.453-2.668-3.979c-0.626-1.533-0.927-3.186-0.927-4.968
	C326.63,53.95,327.664,50.526,329.744,48.032 M335.613,46.909c-0.9,0.609-1.652,1.369-2.232,2.277
	c-0.589,0.908-1.035,1.891-1.34,2.97c-0.298,1.094-0.491,2.121-0.559,3.074c1.105,0.044,2.255,0.074,3.446,0.111
	c1.188,0.029,2.355,0.045,3.49,0.045c1.165,0,2.371-0.016,3.581-0.045c1.205-0.037,2.378-0.067,3.513-0.111
	c0-0.953-0.074-1.966-0.234-3.045c-0.168-1.064-0.48-2.047-0.96-2.984c-0.487-0.923-1.15-1.683-2.006-2.292
	C341.468,46.313,340.34,46,338.944,46C337.642,46,336.521,46.313,335.613,46.909"/>
<path fill="#623795" d="M179.977,93.513c2.501,4.778,5.129,9.665,7.867,14.678c0.351-0.67,0.871-1.652,1.541-2.902
	c0.685-1.266,1.459-2.729,2.353-4.358c0.893-1.626,1.846-3.401,2.857-5.307c1.013-1.905,2.044-3.841,3.097-5.783
	c1.042-1.954,2.088-3.875,3.115-5.765c1.038-1.888,1.991-3.651,2.88-5.289h0.696c0.395,3.417,0.752,6.714,1.098,9.899
	c0.343,3.186,0.685,6.313,1.034,9.401c0.357,3.063,0.719,6.11,1.068,9.121c0.357,3.003,0.756,5.984,1.173,8.932
	c-0.417-0.074-0.846-0.104-1.259-0.104h-1.25h-1.247c-0.413,0-0.833,0.03-1.258,0.104c-0.398-4.729-0.778-9.318-1.168-13.77
	c-0.402-4.437-0.875-8.98-1.448-13.606h-0.097c-2.463,4.481-4.871,8.947-7.242,13.368c-2.363,4.437-4.61,9.062-6.739,13.903h-0.491
	c-2.129-4.484-4.362-8.979-6.685-13.476c-2.337-4.488-4.674-9.096-7.025-13.796h-0.104c-0.238,2.219-0.521,4.597-0.819,7.172
	c-0.313,2.59-0.58,5.121-0.833,7.637c-0.253,2.501-0.462,4.871-0.641,7.104c-0.179,2.218-0.268,4.03-0.268,5.463
	c-0.565-0.074-1.191-0.104-1.86-0.104c-0.686,0-1.303,0.03-1.876,0.104c0.461-2.888,0.952-5.929,1.443-9.129
	c0.491-3.193,0.983-6.408,1.444-9.657c0.462-3.23,0.886-6.435,1.28-9.572c0.387-3.141,0.729-6.151,1.013-8.995h0.907
	C174.991,83.833,177.469,88.75,179.977,93.513"/>
<path fill="#623795" d="M217.327,103.249c0.045-1.324,0.074-2.653,0.074-3.971c0-1.243-0.007-2.59-0.029-4.057
	c-0.016-1.455-0.045-2.925-0.075-4.421c0.89,0.186,1.638,0.253,2.241,0.253c0.569,0,1.302-0.067,2.188-0.253
	c-0.175,2.129-0.313,4.47-0.405,7.015c-0.082,2.546-0.13,5.151-0.13,7.812c0,1.854,0.152,3.261,0.479,4.247
	c0.313,0.982,0.711,1.715,1.184,2.218c0.487,0.562,1.12,1.027,1.891,1.418c0.752,0.372,1.652,0.547,2.69,0.547
	c1.485,0,2.743-0.327,3.733-0.982c0.997-0.655,1.73-1.47,2.195-2.423c0.242-0.61,0.436-1.124,0.581-1.548
	c0.145-0.436,0.257-0.998,0.35-1.716c0.082-0.719,0.138-1.671,0.152-2.873c0.022-1.221,0.03-2.873,0.03-4.969v-4.484
	c0-0.777-0.008-1.515-0.03-2.232c-0.015-0.715-0.048-1.385-0.078-2.028c0.391,0.063,0.763,0.123,1.12,0.186
	c0.361,0.053,0.733,0.067,1.12,0.067c0.398,0,0.771-0.015,1.128-0.067c0.354-0.063,0.711-0.122,1.053-0.186
	c-0.175,2.769-0.282,5.452-0.313,8.027c-0.029,2.575-0.052,5.311-0.052,8.188c0,1.607,0.022,3.171,0.052,4.686
	c0.03,1.54,0.094,3.011,0.16,4.436c-0.707-0.066-1.41-0.097-2.08-0.097s-1.366,0.03-2.08,0.097c0.029-0.327,0.06-0.654,0.081-1.005
	c0.019-0.356,0.026-0.732,0.026-1.12v-2.311h-0.107c-0.924,1.716-2.11,2.966-3.577,3.773c-1.455,0.8-3.04,1.206-4.745,1.206
	c-2.776,0-4.957-0.748-6.535-2.219c-1.585-1.48-2.378-3.605-2.378-6.375C217.241,106.2,217.268,104.588,217.327,103.249"/>
<path fill="#623795" d="M253.635,83.644c-0.115,1.357-0.189,2.683-0.234,3.971c-0.063,1.31-0.123,2.604-0.201,3.934
	c0.391,0,1.12-0.015,2.188-0.033c1.075-0.016,2.218-0.06,3.476-0.127c-0.037,0.097-0.052,0.298-0.052,0.577V92.5v0.592
	c0,0.238,0.015,0.421,0.052,0.528c-0.465-0.029-0.945-0.063-1.447-0.078c-0.487-0.015-1.031-0.029-1.593-0.029h-2.624
	c-0.029,0.146-0.067,0.718-0.13,1.716c-0.053,0.989-0.097,2.173-0.134,3.535c-0.034,1.373-0.063,2.807-0.079,4.306
	c-0.015,1.489-0.021,2.829-0.021,4.001c0,1.001,0.021,1.969,0.074,2.937c0.056,0.952,0.223,1.813,0.514,2.59
	c0.279,0.756,0.699,1.373,1.28,1.831c0.569,0.465,1.384,0.7,2.444,0.7c0.291,0,0.67-0.045,1.15-0.108
	c0.487-0.074,0.9-0.156,1.25-0.265v1.28c-0.603,0.108-1.272,0.235-1.994,0.406c-0.733,0.142-1.433,0.234-2.106,0.234
	c-2.248,0-3.893-0.547-4.969-1.656c-1.061-1.094-1.593-2.721-1.593-4.853c0-0.961,0.016-2.006,0.053-3.126
	c0.041-1.113,0.085-2.345,0.122-3.674c0.063-1.34,0.108-2.81,0.138-4.436c0.045-1.623,0.06-3.421,0.06-5.419h-1.712
	c-0.282,0-0.58,0.015-0.908,0.029c-0.313,0.016-0.654,0.049-1.012,0.078c0.037-0.216,0.06-0.42,0.082-0.609
	c0.022-0.197,0.022-0.406,0.022-0.618c0-0.175,0-0.35-0.022-0.532c-0.022-0.175-0.045-0.361-0.082-0.536
	c1.607,0.115,2.772,0.16,3.528,0.16c-0.045-0.707-0.071-1.593-0.094-2.657c-0.015-1.075-0.052-2.173-0.122-3.309l4.429-1.875
	H253.635z"/>
<path fill="#623795" d="M265.551,103.249c0.053-1.324,0.086-2.653,0.086-3.971c0-1.243-0.019-2.59-0.033-4.057
	c-0.015-1.455-0.045-2.925-0.074-4.421c0.886,0.186,1.63,0.253,2.232,0.253c0.573,0,1.303-0.067,2.188-0.253
	c-0.175,2.129-0.313,4.47-0.406,7.015c-0.081,2.546-0.13,5.151-0.13,7.812c0,1.854,0.16,3.261,0.48,4.247
	c0.319,0.982,0.711,1.715,1.184,2.218c0.494,0.562,1.12,1.027,1.897,1.418c0.756,0.372,1.646,0.547,2.69,0.547
	c1.485,0,2.743-0.327,3.726-0.982c1.001-0.655,1.73-1.47,2.195-2.423c0.246-0.61,0.436-1.124,0.589-1.548
	c0.138-0.436,0.249-0.998,0.342-1.716c0.082-0.719,0.146-1.671,0.16-2.873c0.015-1.221,0.03-2.873,0.03-4.969v-4.484
	c0-0.777-0.016-1.515-0.03-2.232c-0.015-0.715-0.045-1.385-0.086-2.028c0.398,0.063,0.771,0.123,1.128,0.186
	c0.361,0.053,0.726,0.067,1.116,0.067c0.395,0,0.767-0.015,1.128-0.067c0.35-0.063,0.707-0.122,1.057-0.186
	c-0.175,2.769-0.278,5.452-0.319,8.027c-0.03,2.575-0.045,5.311-0.045,8.188c0,1.607,0.015,3.171,0.045,4.686
	c0.041,1.54,0.093,3.011,0.16,4.436c-0.708-0.066-1.403-0.097-2.081-0.097c-0.67,0-1.362,0.03-2.072,0.097
	c0.029-0.327,0.06-0.654,0.078-1.005c0.015-0.356,0.029-0.732,0.029-1.12v-2.311h-0.107c-0.931,1.716-2.118,2.966-3.573,3.773
	c-1.459,0.8-3.052,1.206-4.749,1.206c-2.783,0-4.957-0.748-6.538-2.219c-1.586-1.48-2.378-3.605-2.378-6.375
	C265.47,106.2,265.499,104.588,265.551,103.249"/>
<path fill="#623795" d="M297.933,94c2.088-2.501,5.113-3.732,9.1-3.732c1.89,0,3.513,0.279,4.879,0.874
	c1.373,0.589,2.522,1.374,3.445,2.356c0.931,0.968,1.608,2.109,2.051,3.438c0.447,1.31,0.67,2.713,0.67,4.213
	c0,0.361-0.007,0.703-0.029,1.046c-0.016,0.327-0.049,0.677-0.078,1.034c-1.921-0.037-3.826-0.066-5.709-0.111
	c-1.884-0.033-3.789-0.049-5.709-0.049c-1.173,0-2.33,0.016-3.498,0.049c-1.15,0.045-2.315,0.074-3.491,0.111
	c-0.037,0.187-0.045,0.436-0.045,0.793v0.703c0,1.377,0.197,2.672,0.61,3.893c0.402,1.214,0.998,2.248,1.783,3.119
	c0.785,0.874,1.737,1.563,2.888,2.08c1.128,0.518,2.449,0.778,3.941,0.778c0.718,0,1.447-0.108,2.195-0.298
	c0.74-0.197,1.47-0.466,2.188-0.793c0.699-0.343,1.362-0.748,1.987-1.206c0.625-0.465,1.176-0.968,1.63-1.484l0.268,0.145
	l-0.319,2.624c-1.068,0.845-2.394,1.574-3.971,2.185c-1.586,0.596-3.23,0.908-4.946,0.908c-1.913,0-3.666-0.298-5.251-0.875
	c-1.578-0.595-2.951-1.451-4.109-2.563c-1.142-1.136-2.043-2.453-2.668-3.979c-0.625-1.529-0.931-3.186-0.931-4.969
	C294.813,99.915,295.853,96.494,297.933,94 M303.802,92.873c-0.901,0.61-1.652,1.374-2.233,2.278
	c-0.588,0.908-1.038,1.891-1.344,2.974c-0.294,1.09-0.487,2.121-0.554,3.073c1.104,0.045,2.255,0.075,3.445,0.112
	c1.188,0.029,2.353,0.045,3.491,0.045c1.165,0,2.371-0.016,3.58-0.045c1.206-0.037,2.378-0.067,3.514-0.112
	c0-0.952-0.075-1.969-0.234-3.044c-0.168-1.064-0.48-2.051-0.961-2.984c-0.487-0.923-1.149-1.687-2.006-2.297
	c-0.845-0.595-1.973-0.907-3.368-0.907C305.83,91.965,304.71,92.278,303.802,92.873"/>
<path fill="#623795" d="M326.905,87.335c-0.016-1.426-0.045-2.828-0.075-4.231c-0.041-1.377-0.085-2.706-0.13-3.971
	c-0.063-1.251-0.123-2.341-0.189-3.216c0.989,0.176,1.797,0.268,2.407,0.268c0.592,0,1.396-0.092,2.394-0.268
	c-0.078,0.875-0.131,1.965-0.183,3.216c-0.056,1.265-0.101,2.594-0.138,3.971c-0.037,1.403-0.07,2.806-0.086,4.231
	c-0.015,1.418-0.029,2.735-0.029,3.949v9.639c0,1.221,0.015,2.53,0.029,3.967c0.016,1.406,0.049,2.824,0.086,4.205
	c0.037,1.389,0.082,2.698,0.138,3.949c0.052,1.25,0.104,2.277,0.183,3.092c-0.815-0.066-1.623-0.096-2.394-0.096
	c-0.792,0-1.593,0.029-2.407,0.096c0.066-0.814,0.126-1.842,0.189-3.092c0.045-1.251,0.089-2.561,0.13-3.949
	c0.03-1.381,0.06-2.799,0.075-4.205c0.021-1.437,0.029-2.746,0.029-3.967v-9.639C326.935,90.071,326.927,88.753,326.905,87.335"/>
<path fill="#623795" d="M343.607,87.335c-0.015-1.426-0.045-2.828-0.074-4.231c-0.049-1.377-0.086-2.706-0.131-3.971
	c-0.063-1.251-0.122-2.341-0.197-3.216c0.998,0.176,1.806,0.268,2.408,0.268c0.599,0,1.403-0.092,2.4-0.268
	c-0.078,0.875-0.13,1.965-0.189,3.216c-0.057,1.265-0.101,2.594-0.138,3.971c-0.03,1.403-0.063,2.806-0.078,4.231
	c-0.022,1.418-0.03,2.735-0.03,3.949v9.639c0,1.221,0.008,2.53,0.03,3.967c0.015,1.406,0.048,2.824,0.078,4.205
	c0.037,1.389,0.081,2.698,0.138,3.949c0.06,1.25,0.111,2.277,0.189,3.092c-0.815-0.066-1.623-0.096-2.4-0.096
	c-0.785,0-1.586,0.029-2.408,0.096c0.075-0.814,0.134-1.842,0.197-3.092c0.045-1.251,0.082-2.561,0.131-3.949
	c0.029-1.381,0.06-2.799,0.074-4.205c0.015-1.437,0.029-2.746,0.029-3.967v-9.639C343.637,90.071,343.622,88.753,343.607,87.335"/>
<path fill="#623795" d="M359.874,94.001c2.088-2.502,5.106-3.733,9.1-3.733c1.883,0,3.517,0.279,4.879,0.874
	c1.373,0.589,2.523,1.374,3.446,2.356c0.923,0.968,1.607,2.11,2.051,3.438c0.45,1.311,0.67,2.713,0.67,4.213
	c0,0.361-0.016,0.703-0.03,1.046c-0.015,0.327-0.048,0.677-0.078,1.034c-1.928-0.037-3.826-0.066-5.716-0.111
	c-1.884-0.033-3.781-0.049-5.702-0.049c-1.172,0-2.337,0.016-3.498,0.049c-1.157,0.045-2.314,0.074-3.498,0.111
	c-0.03,0.187-0.045,0.436-0.045,0.793v0.703c0,1.377,0.197,2.672,0.618,3.893c0.395,1.214,0.989,2.248,1.782,3.119
	c0.778,0.875,1.738,1.563,2.881,2.08c1.135,0.518,2.448,0.778,3.94,0.778c0.719,0,1.448-0.108,2.196-0.298
	c0.748-0.197,1.478-0.465,2.188-0.793c0.699-0.342,1.369-0.748,1.994-1.205c0.625-0.466,1.169-0.969,1.627-1.485l0.264,0.146
	l-0.313,2.623c-1.068,0.846-2.393,1.574-3.979,2.186c-1.585,0.595-3.223,0.907-4.938,0.907c-1.913,0-3.673-0.298-5.251-0.874
	c-1.578-0.596-2.951-1.451-4.108-2.564c-1.15-1.135-2.043-2.453-2.669-3.979c-0.625-1.529-0.938-3.186-0.938-4.969
	C356.748,99.915,357.794,96.494,359.874,94.001 M365.743,92.873c-0.908,0.611-1.652,1.374-2.24,2.278
	c-0.588,0.908-1.038,1.891-1.332,2.974c-0.298,1.09-0.491,2.121-0.566,3.074c1.105,0.045,2.256,0.074,3.446,0.111
	c1.188,0.029,2.363,0.045,3.491,0.045c1.172,0,2.37-0.016,3.58-0.045c1.206-0.037,2.378-0.066,3.521-0.111
	c0-0.953-0.082-1.969-0.234-3.045c-0.168-1.064-0.487-2.051-0.968-2.984c-0.48-0.923-1.15-1.686-1.998-2.297
	c-0.853-0.595-1.98-0.907-3.368-0.907C367.771,91.965,366.651,92.278,365.743,92.873"/>
<path fill="#623795" d="M388.043,112.345c0.372,0.435,0.814,0.829,1.344,1.201c0.51,0.376,1.094,0.688,1.752,0.938
	c0.655,0.254,1.362,0.377,2.118,0.377c0.662,0,1.317-0.108,1.936-0.328c0.625-0.209,1.172-0.506,1.663-0.908
	c0.48-0.391,0.859-0.878,1.15-1.484c0.282-0.596,0.409-1.299,0.409-2.092c0-1.094-0.302-1.936-0.92-2.531
	c-0.625-0.576-1.396-1.064-2.318-1.439c-0.938-0.373-1.942-0.699-3.048-0.982s-2.121-0.686-3.04-1.202
	c-0.923-0.514-1.701-1.198-2.326-2.058c-0.618-0.85-0.931-2.029-0.931-3.518c0-1.172,0.197-2.248,0.588-3.23
	c0.388-0.982,0.96-1.813,1.716-2.53c0.737-0.707,1.66-1.28,2.766-1.675c1.104-0.42,2.37-0.61,3.788-0.61
	c1.317,0,2.423,0.175,3.338,0.532c0.908,0.342,1.761,0.67,2.576,0.953c-0.283,0.531-0.548,1.19-0.793,1.982
	c-0.242,0.768-0.409,1.377-0.487,1.799h-0.641c-0.283-0.846-0.83-1.608-1.645-2.297c-0.822-0.67-1.839-1.012-3.041-1.012
	c-0.536,0-1.068,0.092-1.611,0.268c-0.524,0.182-1.012,0.45-1.433,0.808c-0.425,0.356-0.785,0.815-1.064,1.388
	c-0.283,0.563-0.428,1.25-0.428,2.018c0,1.153,0.313,2.027,0.938,2.653c0.625,0.625,1.396,1.098,2.318,1.455
	c0.92,0.357,1.936,0.67,3.041,0.938c1.098,0.268,2.11,0.64,3.04,1.119c0.923,0.488,1.701,1.143,2.315,2.006
	c0.625,0.853,0.938,2.029,0.938,3.514c0,1.042-0.22,2.059-0.67,3.055c-0.45,0.982-1.091,1.891-1.92,2.691
	c-0.83,0.793-1.839,1.418-3.004,1.861c-1.18,0.449-2.523,0.67-4.008,0.67c-1.638,0-3.003-0.16-4.108-0.473
	c-1.099-0.328-2.028-0.7-2.776-1.136c0.216-0.458,0.436-1.083,0.674-1.891c0.227-0.8,0.35-1.47,0.35-1.987h0.64
	C387.402,111.544,387.671,111.923,388.043,112.345"/>
<path fill="#F8962C" d="M4.364,64.947c1.266-2.125,2.881-4.48,7.57-9.166c4.682-4.675,8.373-6.982,9.37-7.651
	c1.712-1.162,2.404-0.179,3.483,1.265c1.072,1.437,4.437,5.575,11.746,22.52c7.294,16.944,8.819,31.078,8.991,32.705
	c0.193,1.622,0.729,1.979-0.805,4.045c-1.533,2.073-9.273,11.447-13.873,14.414c-4.586,2.98-2.799,1.891-3.425,2.158
	c-0.625,0.279-0.714-0.078-0.893-1.519c-0.179-1.447-1.087-9.024-6.401-25.236C14.814,82.27,6.791,69.929,4.811,67.958
	C2.831,65.973,4.364,64.947,4.364,64.947"/>
<path fill="#63BC46" d="M35.893,54.708c0.774-1.131,5.851-7.935,8.471-10.279c2.604-2.329,8.023-6.84,9.095-7.294
	c1.087-0.439,1.533-0.171,1.802,0.812c0.268,0.997,5.314,20.364,7.205,29.828c1.905,9.453,4.063,25.57,4.332,33.147
	c0.268,7.57,0.179,5.762-0.641,7.12c-0.804,1.354-6.207,8.116-10.629,11.979c-4.406,3.87-6.386,5.214-7.026,5.307
	c-0.625,0.097-0.893-0.093-0.804-1.716c0.09-1.607-0.461-9.992-2.345-25.206c-1.897-15.229-5.411-27.208-6.572-31.723
	c-1.176-4.495-2.522-8.823-2.888-9.914C35.536,55.706,35.506,55.282,35.893,54.708"/>
<path fill="#78BCDD" d="M104.63,22.271c0.618,0.462-1.898,4.229-3.87,6.573c-1.987,2.359-3.61,3.699-4.86,5.418
	c-1.266,1.705-6.313,9.356-8.917,25.582c-2.62,16.211,1.607,35.768,2.516,40.64c0.9,4.846,1.891,4.938,1.623,6.11
	c-0.269,1.165-2.248,4.321-5.493,7.745c-3.245,3.42-7.205,7.201-9.453,8.839c-2.263,1.611-3.796,2.419-4.153,2.144
	c-0.357-0.254-2.345-7.812-3.334-14.313c-0.998-6.479-4.317-29.199,2.247-46.929c6.58-17.76,17.209-27.756,21.809-32.534
	C97.329,26.782,103.551,21.467,104.63,22.271"/>
<path fill="#623795" d="M170.941,3.456c1.117-0.269-1.891,4.138-3.691,6.386c-1.801,2.263-10.637,11.73-14.061,12.787
	c-3.416,1.079-17.751,3.528-33.963,14.604c0,0-10.078,14.529-9.608,33.018c0.483,18.496,5.046,30.767,6.006,33.282
	c0.953,2.53,1.266,2.423,0.894,3.249c-0.357,0.814-2.158,4.417-7.83,10.089c-5.679,5.672-8.917,7.651-9.735,8.095
	c-0.804,0.465-1.251,0.908-1.98-0.894c-0.714-1.798-12.697-32.3-2.069-59.66c0,0,8.106-17.979,22.166-31.139
	C131.121,20.113,145.888,9.305,170.941,3.456"/>
</svg>
